<svg xmlns="http://www.w3.org/2000/svg" version="1.1" xmlns:xlink="http://www.w3.org/1999/xlink" xmlns:svgjs="http://svgjs.dev/svgjs" width="1440" height="720" preserveAspectRatio="none" viewBox="0 0 1440 720"><g mask="url(&quot;#SvgjsMask1427&quot;)" fill="none"><path d="M -68.5117220243589,69 C 27.49,154.8 219.49,479.4 411.4882779756411,498 C 603.49,516.6 699.49,148.8 891.488277975641,162 C 1083.49,175.2 1179.49,549.4 1371.488277975641,564 C 1563.49,578.6 1837.79,225.2 1851.488277975641,235 C 1865.19,244.8 1522.3,537.4 1440,613" stroke="rgba(141, 74, 255, 1)" stroke-width="5"></path><path d="M -26.083458562448982,198 C 69.92,280.4 261.92,624.6 453.916541437551,610 C 645.92,595.4 741.92,127.6 933.916541437551,125 C 1125.92,122.4 1221.92,577.8 1413.9165414375511,597 C 1605.92,616.2 1888.7,267.6 1893.9165414375511,221 C 1899.13,174.4 1530.78,335.4 1440,364" stroke="rgba(141, 74, 255, 1)" stroke-width="10"></path><path d="M -206.02853489668803,705 C -110.03,587.2 81.97,160.8 273.97146510331197,116 C 465.97,71.2 561.97,475 753.971465103312,481 C 945.97,487 1041.97,137.6 1233.9714651033119,146 C 1425.97,154.4 1672.77,484.8 1713.9714651033119,523 C 1755.18,561.2 1494.79,374.2 1440,337" stroke="rgba(251, 77, 255, 1)" stroke-width="5"></path></g><defs><mask id="SvgjsMask1427"><rect width="1440" height="720" fill="#ffffff"></rect></mask></defs></svg>